<svg id="Layer_1" data-name="Layer 1" xmlns="http://www.w3.org/2000/svg" viewBox="0 0 122.88 49.21" style="fill: #f95c19"><title>sent-mail</title><path d="M54.58,0,86.24,27.52,120.63,0ZM35.37,37.6a2.9,2.9,0,0,1,0,5.79H23a2.9,2.9,0,0,1,0-5.79Zm2.89-15.89a2.9,2.9,0,0,1,0,5.79H12.89a2.9,2.9,0,0,1,0-5.79Zm59.92.45L119.54,46.5l3.34-44.11L98.18,22.16Zm-20.94,2.2L50.58,49.21h66.65L95.42,24.37,87.11,31h0a1.72,1.72,0,0,1-2.18,0l-7.69-6.69Zm-28.35,22,25.87-24.1L52.2,2.61l-3.31,43.7ZM38.26,5.82a2.89,2.89,0,1,1,0,5.78H2.89a2.89,2.89,0,0,1,0-5.78Z"/></svg>